<?xml version="1.0" encoding="utf-8"?>
<!-- Generator: Adobe Illustrator 28.3.0, SVG Export Plug-In . SVG Version: 6.00 Build 0)  -->
<svg version="1.1" id="Layer_1" xmlns="http://www.w3.org/2000/svg" xmlns:xlink="http://www.w3.org/1999/xlink" x="0px" y="0px"
	 viewBox="0 0 1001.22 223.62" style="enable-background:new 0 0 1001.22 223.62;" xml:space="preserve">
<style type="text/css">
	.st0{fill:#151615;}
	.st1{fill:#0CA18F;}
</style>
<g>
	<path class="st0" d="M94.53,30.89c15.71,0,29.22,3.44,45.42,7.61l7.61,43.95h-0.98c-7.37-24.06-22.1-45.42-49.84-45.42
		c-34.62,0-51.81,36.34-51.81,73.41c0,44.2,20.87,82.5,57.7,82.5c10.56,0,22.59-2.7,29.95-8.59v-40.76
		c0-20.38-9.58-24.8-28.24-27.01v-1.47h61.38v0.49c-9.33,4.91-12.77,14.98-12.77,34.62l-0.25,34.37
		c-9.33,9.33-33.64,22.83-61.38,22.83c-49.84,0-79.06-42.48-79.06-89.37C12.28,74.1,38.8,30.89,94.53,30.89z"/>
	<path class="st0" d="M228.1,80.48c32.16,0,44.69,20.87,48.37,55.49l-72.92,1.72c2.7,33.88,18.91,52.3,40.27,52.3
		c11.29,0,23.08-4.67,33.39-15.47l1.23,0.98c-9.33,16.21-24.8,31.67-47.88,31.67c-33.64,0-56.47-21.61-56.47-63.35
		C174.09,102.09,195.94,80.48,228.1,80.48z M246.52,130.57c-3.44-28.24-10.07-44.44-23.57-44.44c-9.82,0-19.4,11.29-19.4,46.9
		L246.52,130.57z"/>
	<path class="st0" d="M300.29,55.44c0-13.75-2.95-23.82-12.52-27.5v-0.49c17.68-1.23,27.5-3.44,41.25-9.08h0.74v64.08l-0.49,61.38
		h0.49l32.17-33.15c11.79-12.28,16.7-24.31,7.12-27.74v-0.49h42.23v0.49c-12.52,3.93-27.5,14.98-42.48,29.71l-8.35,8.84l28.73,45.67
		c12.03,19.64,20.62,32.16,33.88,37.57v0.49h-65.8v-0.49c10.56-5.4,13.5-11.79,1.23-31.67l-19.64-30.69l-9.08,9.08v18.66
		c0,19.64,3.44,29.71,12.77,34.62v0.49h-54.75v-0.49c9.33-4.91,12.52-14.98,12.52-34.62V55.44z"/>
	<path class="st0" d="M440.49,55.44c0-13.75-2.95-23.82-12.52-27.5v-0.49c17.68-1.23,27.5-3.44,41.25-9.08h0.74v64.08l-0.49,61.38
		h0.49l32.17-33.15c11.79-12.28,16.7-24.31,7.12-27.74v-0.49h42.23v0.49c-12.52,3.93-27.5,14.98-42.48,29.71l-8.35,8.84l28.73,45.67
		c12.03,19.64,20.62,32.16,33.88,37.57v0.49h-65.8v-0.49c10.56-5.4,13.5-11.79,1.23-31.67l-19.64-30.69l-9.08,9.08v18.66
		c0,19.64,3.44,29.71,12.77,34.62v0.49h-54.75v-0.49c9.33-4.91,12.52-14.98,12.52-34.62V55.44z"/>
	<path class="st0" d="M599,82.62c34.16-9.1,61.08,6.08,71.83,46.42c10.75,40.33-5.04,66.9-39.21,76
		c-34.4,9.17-61.08-6.08-71.83-46.42C549.05,118.29,564.6,91.79,599,82.62z M634.44,198.45c14.47-3.86,18.02-21.06,10.81-48.11
		c-8.66-32.5-29.85-66.24-49.78-60.93c-14,3.73-17.88,18.74-10.04,48.16C594.1,170.06,614.98,203.63,634.44,198.45z"/>
</g>
<g>
	<path class="st1" d="M670.62,33.83v-0.49h59.17v0.49c-7.61,5.16-13.01,16.45-5.89,36.83l34.87,98.46h0.49l32.9-98.46
		c6.38-19.4,1.72-31.67-6.38-36.83v-0.49h36.83v0.49c-7.61,5.4-14.24,19.4-21.36,38.79l-47.39,133.81h-12.77L691.74,72.63
		C684.13,52.25,678.24,39.23,670.62,33.83z"/>
	<path class="st1" d="M858.95,80.48c32.16,0,44.69,20.87,48.37,55.49l-72.92,1.72c2.7,33.88,18.91,52.3,40.27,52.3
		c11.29,0,23.08-4.67,33.39-15.47l1.23,0.98c-9.33,16.21-24.8,31.67-47.88,31.67c-33.64,0-56.47-21.61-56.47-63.35
		C804.93,102.09,826.79,80.48,858.95,80.48z M877.36,130.57c-3.44-28.24-10.07-44.44-23.57-44.44c-9.82,0-19.4,11.29-19.4,46.9
		L877.36,130.57z"/>
	<path class="st1" d="M925.25,88.83H914.2v-4.91c13.75,0,30.45-18.66,32.66-34.62l8.1-2.46c0,15.71-2.46,27.01-5.65,35.11v0.49
		h27.01v0.49l-2.21,5.89h-19.4v76.36c0,21.61,4.17,30.45,13.01,30.45c3.19,0,6.63-0.98,8.84-2.46l0.25,0.49
		c-4.67,6.88-13.5,13.26-26.76,13.26c-21.12,0-24.8-20.62-24.8-41.74V88.83z"/>
</g>
</svg>
